<svg width="32" height="32" fill="none" xmlns="http://www.w3.org/2000/svg"><path fill-rule="evenodd" clip-rule="evenodd" d="M30.222 23.111H17.778v7.111h12.444v-7.11zm0-21.333H17.778V16h12.444V1.778zM10.667 16h-8.89v14.222h8.89V16zm0-14.222h-8.89v7.11h8.89v-7.11zM17.777 0C16.797 0 16 .796 16 1.778V16c0 .982.796 1.778 1.778 1.778h12.444c.982 0 1.778-.796 1.778-1.778V1.778C32 .796 31.204 0 30.222 0H17.778zm0 21.333c-.981 0-1.777.796-1.777 1.778v7.111c0 .982.796 1.778 1.778 1.778h12.444c.982 0 1.778-.796 1.778-1.778v-7.11c0-.983-.796-1.779-1.778-1.779H17.778zM0 16c0-.982.796-1.778 1.778-1.778h8.889c.982 0 1.777.796 1.777 1.778v14.222c0 .982-.796 1.778-1.777 1.778h-8.89A1.778 1.778 0 010 30.222V16zM1.778 0C.796 0 0 .796 0 1.778v7.11c0 .983.796 1.779 1.778 1.779h8.889c.982 0 1.777-.796 1.777-1.778V1.778C12.444.796 11.648 0 10.667 0h-8.89z" fill="#5221E6"/></svg>