<svg width="32" height="32" fill="none" xmlns="http://www.w3.org/2000/svg"><g fill="#5221E6"><path d="M29.828 8.236H26.9L26.227 5.2A2.795 2.795 0 0023.481 3H13.316c-1.33 0-2.459.905-2.746 2.201l-.673 3.035h-.694V6.94c0-.73-.595-1.323-1.326-1.323H3.591c-.73 0-1.325.593-1.325 1.323v1.295h-.094A2.173 2.173 0 000 10.404v14.688c0 1.196.975 2.169 2.172 2.169h10.075a11.293 11.293 0 006.152 1.813 11.29 11.29 0 006.151-1.814h5.278A2.173 2.173 0 0032 25.093V10.404a2.173 2.173 0 00-2.172-2.168zM11.79 5.47c.16-.72.788-1.223 1.526-1.223h10.165c.739 0 1.366.503 1.526 1.223l.613 2.765h-1.07a11.293 11.293 0 00-6.151-1.814c-2.266 0-4.379.667-6.152 1.814h-1.07l.613-2.765zM3.516 6.94c0-.042.034-.075.075-.075h4.286c.042 0 .076.033.076.075v1.295H3.516V6.94zm1.503 19.072v-6.777a.624.624 0 00-1.25 0v6.777H2.172a.923.923 0 01-.922-.921V10.404c0-.508.414-.92.922-.92h8.477a11.287 11.287 0 00-3.596 8.264c0 3.257 1.385 6.197 3.597 8.265H5.02zm19.15 0a10.083 10.083 0 01-11.541 0c-2.613-1.824-4.325-4.848-4.325-8.265 0-3.417 1.712-6.441 4.325-8.264a10.08 10.08 0 0111.541 0c2.613 1.823 4.325 4.847 4.325 8.264 0 3.417-1.712 6.441-4.325 8.265zm6.581-.921c0 .508-.414.92-.922.92h-3.68a11.287 11.287 0 003.596-8.264 11.29 11.29 0 00-3.596-8.265h3.68c.508 0 .922.413.922.921v14.688z"/><path d="M18.37 10.111c-4.248 0-7.703 3.456-7.703 7.704 0 4.248 3.456 7.703 7.703 7.703.62 0 1.235-.073 1.831-.219a.587.587 0 10-.278-1.14 6.538 6.538 0 01-8.083-6.345c0-3.6 2.93-6.53 6.53-6.53 3.601 0 6.53 2.93 6.53 6.53a6.495 6.495 0 01-1.12 3.66.587.587 0 00.971.659 7.665 7.665 0 001.323-4.318c0-4.248-3.456-7.704-7.704-7.704zM4.74 11.296a2.373 2.373 0 00-2.37 2.37 2.373 2.373 0 002.37 2.371 2.373 2.373 0 002.371-2.37 2.373 2.373 0 00-2.37-2.37zm0 3.468a1.098 1.098 0 010-2.194 1.098 1.098 0 01.001 2.194z"/><path d="M23.692 23.625a.63.63 0 00-.088-.213.56.56 0 00-.163-.164.63.63 0 00-.214-.088.587.587 0 00-.608.252.604.604 0 00-.1.329.585.585 0 00.1.329.57.57 0 00.266.218.598.598 0 00.555-.055.597.597 0 00.252-.608z"/></g></svg>