<svg width="544.6700073242188px" height="215.83999633789062px" xmlns="http://www.w3.org/2000/svg" viewBox="-22.335003662109386 -32.91999816894531 544.6700073242188 215.83999633789062" style="background: rgba(0, 0, 0, 0);" preserveAspectRatio="xMidYMid"><defs><filter id="editing-hole" x="-100%" y="-100%" width="300%" height="300%"><feFlood flood-color="#000" result="black"></feFlood><feMorphology operator="dilate" radius="2" in="SourceGraphic" result="erode"></feMorphology><feGaussianBlur in="erode" stdDeviation="4" result="blur"></feGaussianBlur><feOffset in="blur" dx="2" dy="2" result="offset"></feOffset><feComposite operator="atop" in="offset" in2="black" result="merge"></feComposite><feComposite operator="in" in="merge" in2="SourceGraphic" result="inner-shadow"></feComposite></filter></defs><g filter="url(#editing-hole)"><g transform="translate(54.7100248336792, 118.21500015258789)"><path d="M22.79-65.16L22.79 0L10.78 0L10.78-84.02L22.79-84.02L73.30-18.87L73.30-84.02L85.31-84.02L85.31 0L73.30 0L22.79-65.16ZM106.29-62.40L117.83-62.40L117.83 0L106.29 0L106.29-62.40ZM105.70-74.41L105.70-86.43L118.42-86.43L118.42-74.41L105.70-74.41ZM178.89-50.86L149.12-50.86L149.12-11.54L178.89-11.54L178.89-22.09L190.43-22.09L190.43-11.54L190.43-11.54Q190.43-9.14 189.52-7.03L189.52-7.03L189.52-7.03Q188.61-4.92 187.06-3.37L187.06-3.37L187.06-3.37Q185.51-1.82 183.40-0.91L183.40-0.91L183.40-0.91Q181.29 0 178.89 0L178.89 0L149.12 0L149.12 0Q146.78 0 144.67-0.91L144.67-0.91L144.67-0.91Q142.56-1.82 141.01-3.37L141.01-3.37L141.01-3.37Q139.45-4.92 138.54-7.03L138.54-7.03L138.54-7.03Q137.64-9.14 137.64-11.54L137.64-11.54L137.64-50.86L137.64-50.86Q137.64-53.26 138.54-55.37L138.54-55.37L138.54-55.37Q139.45-57.48 141.01-59.03L141.01-59.03L141.01-59.03Q142.56-60.59 144.67-61.49L144.67-61.49L144.67-61.49Q146.78-62.40 149.12-62.40L149.12-62.40L178.89-62.40L178.89-62.40Q181.29-62.40 183.40-61.49L183.40-61.49L183.40-61.49Q185.51-60.59 187.06-59.03L187.06-59.03L187.06-59.03Q188.61-57.48 189.52-55.37L189.52-55.37L189.52-55.37Q190.43-53.26 190.43-50.86L190.43-50.86L190.43-40.31L178.89-40.31L178.89-50.86ZM267.13 0L250.90 0L221.13-26.66L221.13 0L209.65 0L209.65-86.43L221.13-86.43L221.13-37.79L248.50-62.40L264.73-62.40L231.21-32.29L267.13 0ZM275.51 0L275.51-17.52L293.03-17.52L293.03 0L275.51 0ZM325.43 0L313.42 0L313.42-84.02L359.41-84.02L359.41-84.02Q379.80-84.02 379.80-63.57L379.80-63.57L379.80-51.62L379.80-51.62Q379.80-31.17 359.41-31.17L359.41-31.17L325.43-31.17L325.43 0ZM325.43-72.01L325.43-43.18L358.77-43.18L358.77-43.18Q363.57-43.18 365.68-45.29L365.68-45.29L365.68-45.29Q367.79-47.40 367.79-52.21L367.79-52.21L367.79-62.99L367.79-62.99Q367.79-67.79 365.68-69.90L365.68-69.90L365.68-69.90Q363.57-72.01 358.77-72.01L358.77-72.01L325.43-72.01Z" fill="#ccc"></path></g></g><style>text {
  font-size: 64px;
  font-family: Arial Black;
  dominant-baseline: central;
  text-anchor: middle;
}</style></svg>