<svg width="79" height="24" fill="none" xmlns="http://www.w3.org/2000/svg"><path d="M4.86 23.7H0V0h5.43c1.12 0 2.03.06 2.73.18.72.1 1.28.32 1.68.66.4.34.67.83.81 1.47.16.62.24 1.46.24 2.52v2.46c0 .62-.07 1.13-.21 1.53-.14.4-.32.72-.54.96-.2.24-.42.42-.66.54-.24.1-.46.17-.66.21v.12c.3.08.57.2.81.36.26.14.48.36.66.66.18.3.32.7.42 1.2.12.48.18 1.1.18 1.86v8.97H6V13.2c0-.26-.03-.43-.09-.51-.06-.1-.22-.15-.48-.15h-.57V23.7zm0-14.97h.57c.26 0 .42-.04.48-.12.06-.1.09-.28.09-.54V4.83c0-.26-.03-.43-.09-.51-.06-.1-.22-.15-.48-.15h-.57v4.56zm17.416 11.46c0 .84-.07 1.51-.21 2.01-.12.5-.36.89-.72 1.17-.34.26-.82.43-1.44.51-.6.08-1.39.12-2.37.12-.96 0-1.75-.04-2.37-.12-.62-.08-1.1-.25-1.44-.51-.34-.28-.58-.67-.72-1.17-.12-.5-.18-1.17-.18-2.01V9.24c0-.84.06-1.51.18-2.01.14-.5.38-.88.72-1.14.34-.28.82-.46 1.44-.54.62-.08 1.41-.12 2.37-.12.98 0 1.77.04 2.37.12.62.08 1.1.26 1.44.54.36.26.6.64.72 1.14.14.5.21 1.17.21 2.01v10.95zm-5.28-.84c0 .26.03.44.09.54.06.08.21.12.45.12.26 0 .42-.04.48-.12.06-.1.09-.28.09-.54v-9.27c0-.26-.03-.43-.09-.51-.06-.1-.22-.15-.48-.15-.24 0-.39.05-.45.15-.06.08-.09.25-.09.51v9.27zM28.724 0v6.54c.26-.36.58-.61.96-.75.4-.14.89-.21 1.47-.21s1.05.07 1.41.21c.36.12.63.32.81.6.2.28.33.66.39 1.14.08.46.12 1.03.12 1.71v10.95c0 .7-.04 1.29-.12 1.77-.06.46-.19.83-.39 1.11-.2.28-.49.48-.87.6s-.87.18-1.47.18c-.68 0-1.23-.07-1.65-.21-.42-.16-.74-.41-.96-.75v.81h-3.99V0h4.29zm.99 10.08c0-.24-.03-.41-.09-.51-.04-.1-.17-.15-.39-.15-.2 0-.35.04-.45.12a.55.55 0 00-.18.3v9.75c.04.14.1.25.18.33.1.06.25.09.45.09.22 0 .35-.05.39-.15.06-.1.09-.27.09-.51v-9.27zm10.641-6.96h-4.26V0h4.26v3.12zm0 20.58h-4.26V5.73h4.26V23.7zm12.198 0h-4.32V10.08c0-.24-.03-.41-.09-.51-.04-.1-.17-.15-.39-.15-.2 0-.35.04-.45.12a.72.72 0 00-.21.3V23.7h-4.29V5.73h3.99v.81c.22-.34.54-.58.96-.72.42-.16.97-.24 1.65-.24.6 0 1.1.06 1.5.18.42.12.75.32.99.6.24.28.41.66.51 1.14.1.46.15 1.04.15 1.74V23.7zm6.641 0h-4.35v-4.23h4.35v4.23zM78.43 0l-2.46 23.7h-6.12l-.81-17.19h-.12l-.99 17.19h-6.21L59.89 0h4.89l.51 16.62h.12L66.13 0h6l.51 16.62h.12L73.51 0h4.92z" fill="#fff"/></svg>