<svg width="24" height="24" fill="none" xmlns="http://www.w3.org/2000/svg"><path fill-rule="evenodd" clip-rule="evenodd" d="M22 6.872c-.69.296-1.478.493-2.364.591.788-.493 1.477-1.28 1.773-2.167-.788.492-1.675.788-2.562.985C18.157 5.493 17.074 5 15.892 5c-2.266 0-4.04 1.773-4.04 3.94 0 .296 0 .592.099.888C8.6 9.63 5.645 8.054 3.576 5.69a3.552 3.552 0 00-.59 1.97c0 1.38.689 2.562 1.773 3.35-.69 0-1.281-.197-1.872-.493v.099c0 1.97 1.379 3.547 3.25 3.94-.295.1-.689.1-1.083.1-.295 0-.492 0-.788-.1a3.933 3.933 0 003.744 2.76c-1.38 1.083-3.153 1.674-5.025 1.674-.295 0-.69 0-.985-.098 1.773 1.182 3.94 1.773 6.207 1.773 7.39 0 11.527-6.108 11.527-11.33v-.493C20.818 8.35 21.507 7.66 22 6.872z" fill="#26A7DE"/></svg>