<svg width="24" height="24" fill="none" xmlns="http://www.w3.org/2000/svg"><path fill-rule="evenodd" clip-rule="evenodd" d="M12 22C6.486 22 2 17.514 2 12S6.486 2 12 2s10 4.486 10 10-4.486 10-10 10zm8.433-8.631c-.292-.092-2.643-.794-5.32-.365 1.117 3.07 1.572 5.57 1.66 6.09a8.556 8.556 0 003.66-5.725zm-5.097 6.507c-.127-.75-.623-3.361-1.822-6.478l-.056.02c-4.818 1.678-6.547 5.02-6.7 5.334a8.53 8.53 0 008.578 1.124zm-9.682-2.152c.194-.331 2.538-4.212 6.943-5.636.112-.036.224-.07.337-.102a28.675 28.675 0 00-.693-1.45c-4.265 1.277-8.404 1.224-8.778 1.216a8.508 8.508 0 002.191 5.972zm-2.015-7.46c.382.005 3.901.02 7.896-1.041a54.506 54.506 0 00-3.166-4.94 8.573 8.573 0 00-4.73 5.98zm6.36-6.555a45.59 45.59 0 013.186 5c3.038-1.138 4.324-2.866 4.477-3.085a8.531 8.531 0 00-7.664-1.915zm8.613 2.903c-.18.243-1.612 2.078-4.77 3.367a26.435 26.435 0 01.75 1.678c2.843-.357 5.667.216 5.949.275a8.5 8.5 0 00-1.93-5.32z" fill="#E94B88"/></svg>