<svg width="24" height="24" fill="none" xmlns="http://www.w3.org/2000/svg"><path d="M19.65 3H4.35C3.63 3 3 3.543 3 4.266v15.468C3 20.457 3.63 21 4.35 21h15.3c.72 0 1.35-.543 1.35-1.266V4.266C21 3.633 20.37 3 19.65 3zM8.31 18.467h-2.7V9.874h2.7v8.593zM6.96 8.608c-.9 0-1.53-.724-1.53-1.538 0-.814.72-1.537 1.53-1.537s1.53.723 1.53 1.537c.09.905-.63 1.538-1.53 1.538zm11.34 9.86h-2.7v-4.161c0-.995 0-2.262-1.35-2.262s-1.62 1.086-1.62 2.262v4.25h-2.7V9.966h2.52v1.176c.36-.724 1.26-1.357 2.52-1.357 2.7 0 3.24 1.809 3.24 4.07v4.613h.09z" fill="#0077B5"/></svg>