<svg width="85" height="21" fill="none" xmlns="http://www.w3.org/2000/svg"><path d="M38.643 10.157c2.686-.886 3.174-3.128 3.167-4.954-.005-2.789-1.986-5.201-7.848-5.201L23.019 0v20.957h10.915c5.897 0 8.067-3.01 8.067-6.025 0-3.65-3.358-4.775-3.358-4.775zM28.213 4.56h7.366l.027.006c.832.146 1.437.849 1.437 1.674 0 .843-.649 1.638-1.506 1.754l-7.32.01-.005-3.444zm7.012 11.514h-7.013v-3.509h7.185l.017.002c.893.102 1.57.84 1.57 1.719 0 .956-.8 1.773-1.759 1.788zM66.504.003h18.491l-.01 4.574H71.642l.012 3.378h12.03v4.597h-12.03v3.655H85L84.997 21H66.504V.003zM55.748.03H44.566v20.964h5.135v-8.482l5.655-.006c1.62.024 2.88 1.343 2.88 2.97v5.5l5.026-.002-.01-6.766c0-3.135-3.046-4.06-3.046-4.06s3.114-.927 3.114-4.632C63.32.982 59.4.03 55.748.03zm2.803 6.504c-.092.69-.785 1.437-1.65 1.437l-7.217.003V4.617h7.22c.862 0 1.538.631 1.647 1.46v.457zM19.69 15.928c-.074.002-7.02.135-9.417-.097-3.862-.376-5.23-3.22-5.23-5.54 0-2.894 1.985-5.024 5.06-5.424 1.462-.19 9.46-.1 9.544-.1l.168.003.017-4.768-.17.001L10.61.02C9.603.08 7.932.182 6.221.877a10.718 10.718 0 00-4.142 3.329A10.373 10.373 0 000 10.454c0 .713.057 1.42.173 2.1.651 3.178 2.747 5.808 5.753 7.223 1.015.444 2.58.977 5.737 1.152l1.7.036 6.311.006h.167l.017-5.045-.168.002z" fill="#8491A0"/></svg>